<svg width="256" height="256" viewBox="0 0 256 256" xmlns="http://www.w3.org/2000/svg">
  <defs>
    <linearGradient id="g3" x1="0" y1="0" x2="1" y2="1">
      <stop offset="0" stop-color="#d6e1ff"/>
      <stop offset="1" stop-color="#7a8dff"/>
    </linearGradient>
  </defs>
  <circle cx="128" cy="128" r="118" fill="black"/>
  <g fill="url(#g3)" transform="translate(128 128)">
    <!-- anello di frecce -->
    <g transform="rotate(0)">
      <path d="M0-92 l10 18 h-20z"/>
    </g>
    <g transform="rotate(45)">
      <path d="M0-92 l10 18 h-20z"/>
    </g>
    <g transform="rotate(90)">
      <path d="M0-92 l10 18 h-20z"/>
    </g>
    <g transform="rotate(135)">
      <path d="M0-92 l10 18 h-20z"/>
    </g>
    <g transform="rotate(180)">
      <path d="M0-92 l10 18 h-20z"/>
    </g>
    <g transform="rotate(225)">
      <path d="M0-92 l10 18 h-20z"/>
    </g>
    <g transform="rotate(270)">
      <path d="M0-92 l10 18 h-20z"/>
    </g>
    <g transform="rotate(315)">
      <path d="M0-92 l10 18 h-20z"/>
    </g>
  </g>
  <circle cx="128" cy="128" r="54" fill="url(#g3)" opacity="0.1"/>
</svg>
